<svg width="55" height="55" viewBox="0 0 55 55" fill="none" xmlns="http://www.w3.org/2000/svg">
<path d="M27.5 55C42.6878 55 55 42.6878 55 27.5C55 12.3122 42.6878 0 27.5 0C12.3122 0 0 12.3122 0 27.5C0 42.6878 12.3122 55 27.5 55Z" fill="#88C9F9"/>
<path d="M46.0318 36.2816C44.4781 35.6857 44.7546 35.9027 43.7967 33.8661C42.8388 31.8311 42.2582 31.1757 40.104 30.9374C37.9484 30.7006 38.0293 30.8686 37.4304 29.7916C36.8315 28.7129 34.4024 30.0834 32.8471 30.6838C31.2872 31.2827 31.6722 32.5874 31.1925 32.4652C30.7113 32.346 29.5013 32.0359 28.3004 31.0795C27.1027 30.12 29.1911 29.3714 29.7915 28.7741C30.392 28.1736 28.661 28.5006 28.0606 28.1385C27.4602 27.781 26.3861 28.8581 25.4282 27.8971C24.4688 26.9392 25.0692 25.5016 24.95 24.3038C24.8293 23.1045 26.5053 22.8661 27.5839 22.6263C28.661 22.3879 29.4982 22.6278 29.4982 24.0639C29.4982 25.5016 30.8167 25.9813 30.4577 24.3022C30.0986 22.6232 30.8167 22.1466 31.2979 21.3078C31.7761 20.4691 32.6149 19.2698 33.692 17.4731C34.7706 15.6764 35.4902 16.5136 36.8071 16.642C38.1256 16.7718 38.4846 16.5152 39.4425 16.6359C40.3974 16.7566 39.4425 15.4381 39.8031 14.1211C40.1606 12.8042 41.479 13.0425 42.799 13.4031C44.116 13.7621 41.479 11.7241 41.0009 10.647C40.5196 9.56836 39.2027 10.647 38.367 8.85031C37.5221 7.05364 36.3442 5.891 35.2656 5.73058C34.187 5.56864 35.6093 8.01309 34.7706 9.33003C33.9288 10.647 32.6393 10.4407 31.3178 10.4407C30.0024 10.4407 28.7802 9.33003 29.7396 7.65253C30.696 5.97656 32.5247 6.1492 33.4827 4.71156C34.4421 3.27545 30.0757 3.40684 28.5174 2.92864C26.959 2.44892 25.089 2.4535 23.5322 3.65128C21.9739 4.84753 18.6418 5.22183 17.3233 5.70003C16.0064 6.17822 15.7696 4.90559 15.5313 3.94614C15.4243 3.51989 14.9385 3.38545 14.254 3.40072C10.8624 5.27072 7.92446 7.84961 5.59766 10.9189C5.95974 12.1518 7.71363 10.6302 8.05738 10.2864C8.41641 9.92739 10.2131 10.4071 10.4514 11.7241C10.6913 13.041 10.5721 14.4817 10.0939 15.6795C9.61418 16.8757 11.2917 18.5532 12.2496 20.2307C13.209 21.9097 14.2861 21.9082 14.7659 21.9082C15.244 21.9082 18.0002 22.9868 17.8795 24.3038C17.7603 25.6223 20.3957 26.8185 21.4743 27.6573C22.5529 28.4991 23.2343 29.3256 24.6338 29.567C26.0347 29.8084 27.6725 32.0985 28.3906 32.3399C28.9421 32.5232 29.8756 33.4048 30.4393 33.6782C29.6984 34.6163 28.2638 36.5428 28.2638 37.4304C28.2638 38.6313 29.8297 40.5181 30.4286 40.9963C31.026 41.4729 32.7463 41.8366 33.1022 43.0328C33.4628 44.2306 32.8517 48.2624 31.7761 49.3395C30.6945 50.4166 30.3018 52.9634 30.3018 52.9634C30.3018 52.9634 30.6822 53.7899 31.9564 52.9634C33.365 52.0513 35.7239 49.4541 36.6665 48.8888C38.4632 47.8086 40.2095 46.4978 41.887 44.9425C43.5645 43.3857 42.9564 42.2949 43.7967 40.7411C44.6354 39.1843 45.7202 39.2546 47.1563 37.9407C48.5954 36.6207 47.5902 36.882 46.0318 36.2816Z" fill="#5C913B"/>
</svg>
