<svg width="55" height="55" viewBox="0 0 55 55" fill="none" xmlns="http://www.w3.org/2000/svg">
<g id="Logo">
<g id="Emoji">
<path id="Vector" d="M27.5 55C42.6878 55 55 42.6878 55 27.5C55 12.3122 42.6878 0 27.5 0C12.3122 0 0 12.3122 0 27.5C0 42.6878 12.3122 55 27.5 55Z" fill="#88C9F9"/>
<path id="Vector_2" d="M46.0318 36.2817C44.4781 35.6858 44.7546 35.9028 43.7967 33.8663C42.8388 31.8313 42.2582 31.1758 40.104 30.9375C37.9484 30.7007 38.0293 30.8688 37.4304 29.7917C36.8315 28.7131 34.4024 30.0835 32.8471 30.6839C31.2872 31.2828 31.6722 32.5875 31.1925 32.4653C30.7113 32.3461 29.5013 32.036 28.3004 31.0796C27.1027 30.1202 29.1911 29.3715 29.7915 28.7742C30.392 28.1738 28.661 28.5007 28.0606 28.1386C27.4602 27.7811 26.3861 28.8582 25.4282 27.8972C24.4688 26.9393 25.0692 25.5017 24.95 24.3039C24.8293 23.1046 26.5053 22.8663 27.5839 22.6264C28.661 22.3881 29.4982 22.6279 29.4982 24.064C29.4982 25.5017 30.8167 25.9814 30.4577 24.3024C30.0986 22.6233 30.8167 22.1467 31.2979 21.3079C31.7761 20.4692 32.6149 19.2699 33.692 17.4732C34.7706 15.6765 35.4902 16.5138 36.8071 16.6421C38.1256 16.772 38.4846 16.5153 39.4425 16.636C40.3974 16.7567 39.4425 15.4382 39.8031 14.1213C40.1606 12.8043 41.479 13.0427 42.799 13.4032C44.116 13.7622 41.479 11.7242 41.0009 10.6471C40.5196 9.56849 39.2027 10.6471 38.367 8.85043C37.5221 7.05376 36.3442 5.89112 35.2656 5.73071C34.187 5.56876 35.6093 8.01321 34.7706 9.33015C33.9288 10.6471 32.6393 10.4408 31.3178 10.4408C30.0024 10.4408 28.7802 9.33015 29.7396 7.65265C30.696 5.97668 32.5247 6.14932 33.4827 4.71168C34.4421 3.27557 30.0757 3.40696 28.5174 2.92876C26.959 2.44904 25.089 2.45362 23.5322 3.6514C21.9739 4.84765 18.6418 5.22196 17.3233 5.70015C16.0064 6.17835 15.7696 4.90571 15.5313 3.94626C15.4243 3.52001 14.9385 3.38557 14.254 3.40085C10.8624 5.27085 7.92446 7.84973 5.59766 10.919C5.95974 12.152 7.71363 10.6303 8.05738 10.2865C8.41641 9.92751 10.2131 10.4072 10.4514 11.7242C10.6913 13.0411 10.5721 14.4818 10.0939 15.6796C9.61418 16.8758 11.2917 18.5533 12.2496 20.2308C13.209 21.9099 14.2861 21.9083 14.7659 21.9083C15.244 21.9083 18.0002 22.987 17.8795 24.3039C17.7603 25.6224 20.3957 26.8186 21.4743 27.6574C22.5529 28.4992 23.2343 29.3257 24.6338 29.5671C26.0347 29.8085 27.6725 32.0986 28.3906 32.34C28.9421 32.5233 29.8756 33.4049 30.4393 33.6783C29.6984 34.6164 28.2638 36.5429 28.2638 37.4306C28.2638 38.6314 29.8297 40.5182 30.4286 40.9964C31.026 41.4731 32.7463 41.8367 33.1022 43.0329C33.4628 44.2307 32.8517 48.2625 31.7761 49.3396C30.6945 50.4167 30.3018 52.9635 30.3018 52.9635C30.3018 52.9635 30.6822 53.79 31.9564 52.9635C33.365 52.0514 35.7239 49.4542 36.6665 48.8889C38.4632 47.8088 40.2095 46.4979 41.887 44.9426C43.5645 43.3858 42.9564 42.295 43.7967 40.7413C44.6354 39.1845 45.7202 39.2547 47.1563 37.9408C48.5954 36.6208 47.5902 36.8821 46.0318 36.2817Z" fill="#5C913B"/>
</g>
</g>
</svg>
